<?xml version="1.0" standalone="no"?>
<!DOCTYPE svg PUBLIC "-//W3C//DTD SVG 20010904//EN"
 "http://www.w3.org/TR/2001/REC-SVG-20010904/DTD/svg10.dtd">
<svg version="1.0" xmlns="http://www.w3.org/2000/svg"
 width="1024.000000pt" height="1024.000000pt" viewBox="0 0 1024.000000 1024.000000"
 preserveAspectRatio="xMidYMid meet">

<g transform="translate(0.000000,1024.000000) scale(0.100000,-0.100000)"
fill="#000000" stroke="none">
<path d="M0 5120 l0 -5120 5120 0 5120 0 0 5120 0 5120 -5120 0 -5120 0 0
-5120z m6824 3398 c-7 -278 -19 -437 -34 -452 -19 -18 -126 105 -144 165 -20
67 -34 89 -55 89 -26 0 -48 -29 -61 -82 -15 -58 -124 -184 -296 -342 -65 -60
-123 -117 -129 -126 -5 -9 -20 -29 -31 -43 l-22 -27 -71 67 -72 67 54 55 c29
31 80 88 112 126 33 39 122 136 198 216 134 142 187 205 187 221 0 4 -31 8
-68 8 -103 0 -180 18 -230 52 -41 28 -43 32 -28 44 35 25 265 93 456 134 107
23 197 44 199 46 2 2 12 4 22 4 18 0 18 -12 13 -222z m-706 -143 c1 -1 -5 -17
-14 -36 -9 -19 -26 -54 -38 -79 -25 -55 -135 -163 -235 -232 l-74 -52 -44 48
-43 48 38 25 c46 32 272 260 264 267 -3 3 -1 6 5 6 17 0 25 50 11 67 -8 11 92
-38 130 -62z m-1401 -60 c455 -60 894 -306 1177 -660 196 -246 309 -470 381
-754 39 -155 48 -255 42 -475 -5 -222 -19 -320 -68 -474 -98 -306 -247 -550
-474 -777 -216 -217 -431 -349 -720 -444 -223 -73 -308 -86 -565 -85 -252 0
-331 11 -544 80 -260 84 -495 219 -670 384 -200 189 -322 351 -426 565 -80
165 -104 237 -146 443 -34 165 -37 189 -37 357 -1 301 54 544 187 821 161 334
389 587 711 784 206 126 480 217 735 243 95 10 312 5 417 -8z m-1912 -55 c3
-5 8 -47 11 -92 5 -64 2 -92 -10 -120 -18 -43 -13 -42 -126 -19 l-85 17 -7 49
c-3 28 -7 76 -7 107 l-1 57 68 4 c37 2 86 4 109 5 23 1 45 -2 48 -8z m3866
-349 c-6 -11 -113 -121 -238 -245 -209 -207 -229 -223 -235 -201 -3 13 -16 38
-28 55 -20 28 -20 33 -7 53 24 35 111 134 226 253 58 60 126 132 150 158 l45
48 48 -51 c41 -42 47 -54 39 -70z m-4364 -129 c6 -4 13 -21 15 -37 3 -27 7
-31 43 -35 38 -5 40 -7 40 -40 0 -34 -1 -35 -42 -38 -42 -3 -42 -3 -45 -45 -3
-41 -4 -42 -38 -42 -33 0 -36 2 -44 42 -9 40 -11 42 -50 45 -38 3 -41 5 -41
33 0 27 4 31 43 39 34 7 42 13 42 32 0 40 44 67 77 46z m5052 -231 c40 -38 41
-77 4 -113 -16 -15 -41 -30 -56 -34 -24 -5 -34 -1 -63 27 -44 42 -44 71 0 115
42 42 74 43 115 5z m-558 -20 c62 -63 20 -171 -67 -171 -30 0 -44 7 -76 40
-49 52 -50 82 -2 126 48 46 102 47 145 5z m1003 -152 c14 -17 26 -36 26 -43 0
-17 -37 -64 -60 -76 -40 -21 -109 35 -95 79 23 73 85 92 129 40z m-5646 -156
l-3 -128 -120 0 -120 0 -3 114 c-1 63 0 121 2 128 4 10 36 13 126 13 l121 0
-3 -127z m5136 -158 c9 -13 16 -33 16 -44 0 -11 7 -24 16 -29 21 -12 -211 -21
-625 -24 l-305 -3 -12 45 c-6 25 -15 53 -19 63 -7 16 19 17 453 17 l460 0 16
-25z m494 -116 c112 -54 106 -237 -8 -283 -60 -24 -101 -20 -147 13 -98 71
-91 225 12 272 53 24 89 24 143 -2z m-359 -98 c19 -12 22 -118 3 -130 -12 -7
-552 -21 -849 -21 l-143 0 0 33 c0 17 -4 49 -9 70 -5 20 -8 38 -7 39 1 2 595
13 821 16 94 1 177 -2 184 -7z m-5527 -57 c16 -34 -5 -74 -46 -87 -24 -8 -32
-6 -43 9 -16 21 -17 58 -3 85 8 13 21 19 46 19 27 0 37 -5 46 -26z m624 9 c16
-6 19 -79 5 -102 -7 -11 -45 -13 -210 -9 -128 3 -206 9 -213 16 -8 8 -8 25 -2
54 7 32 15 44 34 50 26 8 362 0 386 -9z m4504 -232 c21 -6 26 -15 32 -56 4
-30 3 -54 -3 -60 -6 -6 -121 -10 -299 -11 l-290 -1 0 63 0 64 208 3 c114 1
234 3 267 4 33 0 71 -2 85 -6z m-4510 -68 l0 -66 -232 7 c-249 7 -278 13 -278
59 0 13 9 33 20 45 20 21 27 22 255 22 l235 0 0 -67z m4919 35 c39 -24 61 -71
61 -128 0 -81 -59 -140 -139 -140 -36 0 -48 6 -86 45 -42 41 -45 48 -45 97 0
62 24 108 72 138 39 24 84 20 137 -12z m-5832 -17 c62 -29 89 -93 71 -175 -17
-83 -110 -136 -176 -102 -37 19 -80 69 -88 102 -10 38 2 104 23 133 22 29 78
61 108 61 11 0 39 -9 62 -19z m6452 -156 c4 -24 19 -35 49 -35 26 0 28 -28 2
-40 -47 -22 -55 -30 -60 -56 -6 -33 -19 -37 -31 -11 -5 9 -13 25 -18 35 -4 9
-22 18 -40 20 -45 5 -43 39 3 48 27 4 37 13 45 36 12 34 43 36 50 3z m-5561
-44 c7 -1 12 -15 13 -33 0 -24 2 -28 8 -15 5 14 9 9 17 -22 l11 -40 -62 -6
c-34 -4 -200 -5 -368 -3 -349 3 -350 4 -322 71 18 43 27 46 155 50 84 2 514 0
548 -2z m4472 -10 c15 -30 12 -77 -7 -92 -13 -11 -68 -14 -259 -14 -133 0
-244 2 -246 5 -2 3 -2 29 0 57 l4 53 221 3 c122 1 234 3 249 5 18 1 31 -4 38
-17z m781 -190 c34 -33 39 -45 39 -83 0 -56 -31 -106 -82 -131 -73 -36 -171
17 -184 99 -13 88 46 154 139 154 44 0 54 -4 88 -39z m-6153 -56 c26 -31 27
-46 7 -85 -17 -34 -50 -45 -100 -36 -93 18 -119 113 -40 147 36 16 108 2 133
-26z m973 0 c0 -5 4 -31 8 -57 9 -56 -2 -64 -19 -13 -6 19 -16 35 -21 35 -11
0 -2 -39 12 -54 5 -6 9 -12 9 -15 0 -4 -174 -7 -388 -9 -420 -3 -428 -2 -446
50 -12 34 12 65 53 70 72 9 791 3 792 -7z m4826 3 c7 -6 13 -32 13 -58 0 -37
-4 -48 -17 -51 -10 -2 -235 -3 -501 -1 l-483 3 7 47 c3 26 13 52 20 58 20 16
943 17 961 2z m-439 -240 c17 -17 15 -84 -4 -102 -13 -14 -55 -16 -308 -16
l-293 0 5 26 5 27 12 -23 c11 -20 13 -20 19 -5 3 9 4 21 0 26 -3 5 11 16 30
26 19 9 33 20 30 25 -3 4 -4 9 -2 10 2 1 104 4 228 8 124 3 234 7 246 8 11 1
25 -3 32 -10z m-4364 -4 c9 -4 16 -18 16 -34 0 -16 4 -40 10 -54 l10 -26 -217
0 c-209 0 -218 1 -240 22 -29 27 -29 45 -1 75 21 22 26 23 214 23 106 0 199
-3 208 -6z m3783 -41 c-3 -10 -5 -4 -5 12 0 17 2 24 5 18 2 -7 2 -21 0 -30z
m-4645 -20 c22 -20 23 -45 3 -83 -19 -38 -50 -47 -77 -23 -28 25 -38 54 -25
78 23 45 67 57 99 28z m375 -211 c6 -4 15 -20 18 -35 10 -39 -17 -77 -55 -77
-32 0 -50 22 -50 64 0 39 54 69 87 48z m420 -47 c24 -25 43 -51 43 -59 0 -7
-14 -32 -30 -54 -39 -54 -81 -58 -135 -11 -46 41 -48 84 -4 134 43 49 71 47
126 -10z m4211 11 c10 -27 20 -36 50 -43 30 -7 38 -14 40 -35 3 -23 -2 -30
-31 -42 -20 -8 -41 -27 -49 -43 -21 -43 -60 -43 -86 1 -16 26 -28 35 -53 38
-67 7 -64 70 4 76 31 3 38 8 43 30 15 63 62 73 82 18z m-5053 -185 l7 -49 61
-9 c60 -8 62 -9 62 -38 0 -29 -2 -30 -59 -37 -32 -4 -61 -9 -63 -11 -2 -3 -6
-27 -10 -56 -5 -45 -9 -51 -29 -51 -28 0 -44 27 -44 73 0 37 -15 47 -72 47
-21 0 -29 6 -34 26 -9 34 2 42 56 46 l45 3 3 53 c3 52 3 52 37 52 32 0 33 -1
40 -49z m1109 -41 c31 -32 37 -45 32 -65 -6 -24 -333 -358 -424 -433 -40 -33
-43 -34 -61 -18 -10 9 -26 32 -36 50 l-19 34 39 49 c36 46 415 422 425 423 3
0 22 -18 44 -40z m4696 -84 c0 -63 -4 -117 -8 -120 -5 -3 -64 -8 -130 -12
l-122 -7 0 111 c0 61 -3 117 -6 126 -5 14 10 16 130 16 l136 0 0 -114z m-1310
0 l54 -56 -79 -82 c-92 -95 -96 -98 -107 -92 -4 3 -8 -3 -8 -13 0 -21 -76
-143 -89 -143 -15 0 -172 172 -168 184 2 6 12 11 23 11 10 0 26 7 35 15 39 37
155 169 191 218 l39 53 27 -20 c15 -11 52 -45 82 -75z m1587 22 c-3 -8 -6 -5
-6 6 -1 11 2 17 5 13 3 -3 4 -12 1 -19z m-1200 -95 c2 -6 -16 -25 -41 -43 -25
-17 -71 -63 -103 -103 -31 -40 -130 -145 -220 -233 -139 -137 -166 -159 -178
-148 -17 17 -3 73 28 119 59 86 250 315 288 346 82 67 109 80 168 77 30 -2 56
-8 58 -15z m223 -188 c58 -55 173 -163 255 -240 296 -274 506 -479 526 -512
28 -45 23 -141 -11 -193 -20 -32 -21 -33 -16 -8 9 38 0 53 -55 97 -27 21 -165
151 -306 288 -142 138 -314 301 -383 363 -69 63 -134 123 -145 134 -11 12 -33
31 -48 43 l-28 22 32 56 c19 34 29 63 26 76 -6 21 -5 20 21 -2 15 -13 74 -69
132 -124z m-4602 -133 c28 -26 52 -83 52 -125 0 -27 -27 -74 -52 -91 -29 -20
-100 -20 -139 -1 -61 32 -86 113 -54 175 39 75 135 96 193 42z m1340 -435 c-3
-216 -3 -219 -27 -238 -34 -28 -85 -25 -110 7 -19 24 -20 40 -21 265 0 131 3
257 6 279 l6 39 75 -67 74 -66 -3 -219z m-538 222 c0 -8 5 -7 16 2 14 11 18
10 29 -5 26 -34 -7 -60 -45 -36 -16 10 -23 50 -9 50 5 0 9 -5 9 -11z m3170
-25 c14 -9 79 -70 145 -134 66 -65 188 -177 270 -250 83 -73 252 -229 376
-347 198 -188 226 -218 225 -244 -1 -35 -7 -35 -74 -4 -51 24 -83 53 -769 703
-141 133 -243 252 -243 283 0 15 44 10 70 -7z m-3581 -5 c37 -13 63 -56 64
-107 1 -46 -47 -92 -99 -92 -47 0 -105 31 -127 70 -16 26 -17 36 -7 60 13 31
47 58 89 70 37 12 44 11 80 -1z m1683 -188 c7 -10 22 -20 33 -22 29 -6 33 -66
34 -556 1 -415 0 -423 -20 -433 -11 -6 -37 -10 -57 -8 l-37 3 -3 485 c-1 267
0 500 3 518 7 36 27 42 47 13z m532 -37 c8 -58 6 -298 -3 -379 l-6 -60 -52 -3
-53 -3 0 240 0 240 48 4 c26 2 50 4 53 5 4 1 9 -19 13 -44z m-1737 16 c73 -44
81 -134 17 -190 -25 -21 -45 -30 -70 -30 -76 0 -124 51 -124 132 1 91 95 138
177 88z m1505 -194 c3 -105 3 -211 -1 -236 l-6 -45 -50 3 c-27 1 -53 8 -57 15
-9 14 -11 294 -2 399 l7 74 52 -9 52 -10 5 -191z m918 127 c0 -32 3 -68 6 -80
6 -23 5 -23 -100 -23 l-106 0 0 48 c0 34 3 43 10 32 5 -8 10 -24 11 -35 0 -11
3 -14 6 -7 2 6 9 12 15 12 16 0 48 41 48 61 0 10 -8 20 -17 23 -10 3 1 3 25 0
24 -2 49 -1 55 3 7 5 -26 11 -73 14 l-85 5 103 2 102 2 0 -57z m-1517 -27 c73
-31 113 -112 93 -190 -10 -40 -64 -95 -106 -107 -60 -18 -105 -4 -161 50 -43
42 -49 52 -49 89 0 70 39 144 85 163 32 12 103 10 138 -5z m1902 -186 c8 -88
6 -86 85 -92 33 -3 35 -6 38 -40 3 -40 -2 -44 -73 -50 -24 -2 -31 -8 -33 -28
-11 -111 -11 -110 -47 -110 l-33 0 -7 64 -7 64 -37 6 c-20 3 -48 6 -63 6 -24
0 -28 4 -28 29 0 39 24 61 65 61 52 0 65 9 65 45 0 18 3 53 6 79 6 42 9 46 34
46 28 0 28 -1 35 -80z m-2334 -73 c77 -52 99 -136 59 -224 -24 -55 -70 -83
-133 -83 -65 0 -113 24 -145 73 -51 77 -28 186 51 236 45 29 123 28 168 -2z
m4240 -51 c41 -152 -46 -343 -189 -413 -52 -26 -67 -28 -167 -28 -105 0 -175
14 -175 36 0 4 51 38 113 75 61 37 124 78 139 90 48 39 137 146 175 209 71
119 64 111 80 90 7 -11 18 -37 24 -59z m-2961 -178 c107 -54 120 -193 27 -275
-63 -55 -140 -53 -209 5 -82 69 -74 198 15 263 50 36 104 38 167 7z m-2278
-388 c121 -8 156 -14 203 -35 83 -36 130 -78 162 -143 l28 -57 -1 -530 c-2
-452 -4 -536 -17 -567 -23 -55 -92 -125 -151 -151 l-51 -23 -480 5 -480 6 -63
34 c-67 36 -118 88 -149 150 -17 33 -18 73 -18 541 l0 505 24 53 c32 71 129
161 201 186 87 31 502 45 792 26z m4775 -132 c-5 -19 -11 -627 -8 -735 1 -45
32 -73 79 -73 62 0 65 -7 57 -100 l-7 -83 -92 5 c-106 6 -145 22 -181 76 -52
79 -56 125 -50 507 3 193 8 364 11 382 l5 32 87 4 c48 1 91 4 96 5 4 1 6 -8 3
-20z m-3935 -1 c1 -1 4 -153 7 -338 l6 -336 28 -41 c34 -52 91 -82 154 -82 62
0 110 26 148 79 l30 43 3 339 3 339 105 0 105 0 -3 -362 -3 -363 -25 -49 c-95
-188 -315 -270 -518 -194 -71 27 -169 119 -206 193 -40 83 -46 139 -46 471 l0
300 105 2 c58 0 106 0 107 -1z m1277 -257 c67 -29 142 -111 172 -188 14 -37
24 -88 27 -145 4 -86 4 -90 -33 -164 -49 -100 -151 -206 -215 -224 -121 -33
-231 3 -292 96 l-20 30 5 -150 c2 -82 1 -160 -4 -172 -8 -22 -14 -23 -103 -23
l-95 0 2 480 2 480 93 0 92 0 0 -55 c0 -52 14 -73 26 -41 8 22 79 67 137 88
64 23 134 19 206 -12z m773 -6 l97 -27 -22 -27 c-12 -14 -33 -49 -46 -77 l-24
-50 -56 25 c-45 21 -72 26 -138 27 -73 0 -85 -3 -105 -23 -42 -41 4 -79 142
-118 156 -44 213 -80 245 -156 33 -80 13 -150 -62 -218 -76 -71 -119 -85 -263
-85 -134 0 -188 12 -282 63 l-48 25 30 34 c17 18 37 49 44 68 l15 35 48 -24
c60 -30 136 -46 214 -46 66 0 93 10 109 40 23 42 -10 67 -136 100 -149 40
-210 78 -245 155 -37 79 -21 162 45 233 75 83 246 101 438 46z m728 -4 c41
-17 79 -35 83 -39 9 -9 -55 -145 -72 -155 -5 -3 -14 1 -21 9 -20 24 -117 48
-176 43 -186 -16 -238 -255 -81 -372 45 -33 156 -30 226 7 30 15 55 26 56 25
1 -2 8 -19 15 -38 8 -19 30 -52 49 -73 18 -21 32 -39 30 -41 -17 -17 -167 -77
-217 -86 -115 -23 -267 24 -343 107 -82 89 -131 248 -108 347 29 124 87 199
192 251 131 64 238 69 367 15z m647 10 c61 -26 116 -83 146 -149 17 -39 22
-83 33 -291 7 -135 13 -253 13 -262 1 -16 -10 -18 -94 -18 l-95 0 0 51 0 51
-45 -36 c-76 -63 -125 -79 -224 -74 -153 7 -222 70 -229 209 -6 112 30 174
128 218 39 18 66 21 198 21 92 0 152 4 152 10 0 32 -36 92 -64 107 -68 35
-250 25 -324 -18 -31 -18 -33 -18 -39 -1 -3 9 -17 45 -30 80 -14 35 -23 64
-21 66 3 2 187 52 223 60 11 3 65 4 120 2 77 -2 112 -8 152 -26z m1139 -10
c78 -35 132 -84 169 -152 26 -47 30 -65 33 -155 l4 -103 -256 0 c-200 0 -256
-3 -256 -13 0 -26 52 -88 90 -107 22 -11 60 -23 84 -26 64 -9 171 13 207 43
27 23 29 23 29 6 0 -11 18 -45 40 -76 l39 -57 -57 -29 c-116 -59 -212 -73
-324 -50 -121 26 -210 97 -268 215 -46 93 -53 208 -20 308 64 194 291 285 486
196z m-2926 -1060 c0 -82 2 -91 23 -104 53 -35 87 10 87 115 0 59 16 89 46 89
13 0 14 -16 9 -102 -7 -115 -18 -142 -70 -164 -48 -20 -69 -18 -104 12 -39 32
-48 70 -43 166 3 61 8 78 21 81 28 6 31 -2 31 -93z m1350 22 c12 -32 32 -75
44 -97 13 -22 27 -50 30 -62 7 -21 4 -23 -33 -23 -34 0 -41 3 -41 20 0 17 -7
20 -50 20 -45 0 -52 -3 -60 -25 -7 -18 -17 -25 -35 -25 -14 0 -25 5 -25 11 0
5 15 47 34 92 18 45 39 99 45 119 12 37 36 52 58 35 7 -5 22 -34 33 -65z
m-2886 38 c14 -17 33 -44 43 -60 l17 -29 33 49 c34 51 69 78 83 63 4 -4 9 -62
11 -128 l4 -120 -27 -3 -28 -3 0 77 0 77 -40 -44 -40 -44 -18 24 c-51 73 -51
73 -52 -11 0 -76 -1 -78 -25 -78 l-25 0 0 130 c0 121 1 130 19 130 11 0 31
-14 45 -30z m456 -2 c23 -38 75 -161 85 -200 6 -25 4 -28 -17 -28 -17 0 -27 8
-35 30 -10 26 -16 30 -51 30 -56 0 -72 -8 -72 -36 0 -20 -5 -24 -30 -24 -38 0
-38 14 -2 88 16 31 39 83 51 115 13 31 30 57 37 57 8 0 23 -15 34 -32z m378
16 c23 -16 29 -48 11 -60 -6 -3 -16 -1 -22 5 -19 19 -82 13 -102 -9 -29 -32
-25 -88 9 -116 15 -13 34 -24 42 -24 27 0 54 20 54 41 0 16 -5 18 -25 13 -18
-4 -25 -2 -25 7 1 31 16 39 63 33 l47 -7 0 -48 c0 -41 -4 -51 -26 -65 -14 -10
-47 -19 -75 -22 -47 -4 -51 -3 -94 40 -52 53 -58 90 -24 148 44 75 114 102
167 64z m354 -14 c-4 -29 -5 -30 -63 -30 -56 0 -59 -1 -59 -24 0 -23 4 -25 53
-28 45 -3 52 -6 55 -25 3 -21 0 -23 -47 -23 -47 0 -51 -2 -51 -25 0 -23 4 -24
63 -27 56 -3 62 -5 65 -25 3 -22 0 -23 -61 -23 -35 0 -79 -3 -96 -6 l-31 -6 0
130 0 131 68 4 c37 2 76 4 88 5 17 2 20 -2 16 -28z m803 -1 c71 -62 24 -149
-80 -149 -37 0 -37 0 -33 -40 1 -22 0 -40 -4 -40 -33 -1 -36 3 -42 54 -3 30
-3 88 1 130 l6 76 58 0 c51 0 63 -4 94 -31z m285 16 c49 -25 38 -42 -23 -37
-40 3 -56 0 -66 -11 -18 -23 -8 -33 46 -47 63 -15 73 -25 73 -70 0 -33 -5 -41
-34 -59 -40 -25 -102 -27 -128 -4 -29 26 -21 33 41 33 33 0 62 4 66 9 3 5 -23
29 -57 53 -73 50 -80 72 -43 117 31 36 76 41 125 16z m319 4 c36 -13 40 -33
10 -49 -14 -8 -29 -8 -48 -2 -84 29 -122 -84 -46 -134 22 -14 30 -15 50 -4 31
16 78 5 73 -18 -4 -22 -89 -56 -121 -48 -35 8 -97 95 -97 135 0 94 86 152 179
120z m513 -83 l-4 -94 44 -7 c23 -3 70 -7 103 -8 53 -2 60 -5 63 -23 3 -19 -3
-22 -50 -27 -82 -10 -186 -8 -193 3 -4 6 -3 65 0 130 6 101 10 120 24 120 14
0 16 -13 13 -94z m528 87 c0 -5 3 -19 7 -31 5 -19 2 -23 -13 -22 -10 1 -31 2
-46 1 l-26 -1 5 -100 6 -100 -33 0 -33 0 6 99 6 99 -47 -1 c-37 -2 -47 1 -50
16 -8 38 15 47 119 47 55 0 99 -3 99 -7z m486 -12 c49 -30 77 -84 71 -137 -6
-54 -20 -72 -76 -97 -54 -24 -98 -17 -134 21 -37 39 -49 75 -38 123 21 91 105
134 177 90z m267 -5 c12 -13 39 -49 60 -80 21 -31 42 -56 47 -56 6 0 10 29 10
64 0 77 6 96 30 96 26 0 30 -19 30 -146 l0 -114 -29 0 c-24 0 -42 14 -91 68
l-61 67 3 -65 c3 -64 2 -65 -22 -65 -22 0 -26 5 -31 45 -3 25 -4 82 -1 128 5
90 15 101 55 58z m-4593 -88 c0 -57 3 -113 6 -125 6 -21 3 -23 -30 -23 l-36 0
0 118 c0 65 3 122 7 125 3 4 17 7 30 7 23 0 23 -2 23 -102z m4005 70 c3 -18 5
-73 3 -123 -3 -90 -3 -90 -30 -93 l-28 -3 0 119 c0 65 3 122 7 125 18 19 42 5
48 -25z m-515 -118 c0 -5 -5 -10 -11 -10 -5 0 -7 5 -4 10 3 6 8 10 11 10 2 0
4 -4 4 -10z"/>
<path d="M4340 8049 c-30 -4 -89 -13 -130 -20 -104 -16 -141 -25 -250 -66
-247 -91 -502 -277 -664 -484 -232 -297 -347 -625 -346 -987 1 -156 13 -242
56 -392 60 -211 128 -351 262 -540 72 -101 235 -257 347 -332 270 -181 551
-268 860 -268 286 1 531 65 797 210 220 121 465 386 593 640 101 202 175 494
176 695 0 128 -9 190 -52 353 -121 462 -432 848 -848 1057 -66 33 -226 91
-289 106 -144 33 -393 46 -512 28z m-60 -264 c40 -20 60 -53 60 -95 0 -53 -37
-82 -170 -136 -145 -57 -210 -94 -335 -187 -110 -82 -202 -175 -263 -265 -47
-68 -111 -129 -147 -138 -31 -8 -81 12 -100 40 -18 25 -18 69 -1 118 22 62
125 207 201 283 185 185 373 297 615 369 102 30 103 30 140 11z m482 -452 c-2
-71 -5 -134 -7 -141 -4 -10 -37 -12 -142 -10 l-138 3 -3 138 -3 137 148 0 148
0 -3 -127z m-405 50 c-4 -38 -7 -93 -7 -123 l0 -55 -127 0 -127 0 -1 123 -1
122 134 0 135 0 -6 -67z m793 -68 l0 -135 -145 0 -145 0 0 135 0 135 145 0
145 0 0 -135z m141 -101 c9 -11 8 -14 -10 -14 -18 0 -21 6 -20 43 1 39 1 40 9
14 5 -16 14 -35 21 -43z m-1393 -114 l92 0 0 -145 0 -145 -145 0 -145 0 0 151
0 152 53 -7 c28 -3 94 -6 145 -6z m482 -143 c0 -79 -2 -146 -4 -148 -2 -2 -68
-3 -145 -1 l-141 3 0 145 0 144 145 0 145 0 0 -143z m380 -7 l0 -140 -110 -2
c-60 -1 -125 -2 -142 -2 l-33 -1 2 130 c1 72 3 136 3 143 0 9 35 12 140 12
l140 0 0 -140z m390 0 c0 -105 -3 -140 -12 -141 -7 -1 -73 -3 -145 -4 l-133
-4 0 139 c0 101 3 140 13 143 6 3 72 6 145 6 l132 1 0 -140z m370 53 c0 -49 3
-112 6 -140 l7 -53 -142 0 -141 0 0 140 0 140 135 0 135 0 0 -87z m-1918 -280
c2 -5 2 -70 0 -145 l-4 -138 -139 0 -139 0 0 145 0 145 139 0 c77 0 141 -3
143 -7z m387 -8 c2 -2 4 -66 5 -142 l1 -138 -145 2 -145 1 -3 133 c-1 73 0
139 3 147 5 13 28 14 143 8 75 -4 138 -9 141 -11z m389 -137 l-3 -143 -142 -3
-143 -3 0 146 0 145 145 0 146 0 -3 -142z m382 3 c0 -117 -2 -140 -16 -145 -9
-3 -67 -6 -129 -6 -62 0 -120 3 -129 6 -13 5 -16 26 -16 123 0 175 -13 161
151 161 l139 0 0 -139z m387 -3 l1 -138 -143 0 c-79 0 -146 3 -148 8 -2 4 -2
64 1 134 l4 127 32 4 c17 2 80 4 141 3 l110 -1 2 -137z m373 2 l0 -140 -140 0
-140 0 0 135 0 134 113 4 c61 1 124 4 140 5 l27 2 0 -140z m-1920 -370 l0
-140 -135 0 -135 0 0 58 c0 31 -3 94 -7 140 l-6 82 142 0 141 0 0 -140z m397
3 l-2 -138 -142 -3 -143 -3 0 88 c0 49 -3 112 -6 141 l-7 52 151 0 150 0 -1
-137z m379 0 l-2 -138 -142 -3 -142 -3 0 141 0 140 144 0 143 0 -1 -137z m384
13 c0 -68 -3 -131 -6 -140 -5 -14 -27 -16 -139 -16 l-132 0 -5 133 c-3 72 -3
135 -1 140 2 4 67 7 144 7 l139 0 0 -124z m382 -10 c-4 -158 12 -144 -164
-145 l-118 -1 0 140 0 140 143 0 142 0 -3 -134z m366 -6 l-3 -135 -127 -1
-128 -2 0 138 0 137 130 -1 130 -1 -2 -135z m-1511 -357 l-2 -138 -140 0 -140
0 -3 124 c-1 69 0 131 2 138 4 10 39 13 145 13 l140 0 -2 -137z m378 123 c0 0
-1 -58 -3 -128 l-3 -128 -82 0 c-45 0 -106 -3 -134 -6 l-53 -7 0 136 c0 121 2
136 18 140 14 4 257 -3 257 -7z m380 -126 l0 -130 -137 0 -138 0 0 130 0 130
138 0 137 0 0 -130z m385 0 l0 -130 -140 0 -140 0 0 130 0 130 140 0 140 0 0
-130z m-953 -280 c-5 -27 -14 -50 -18 -50 -19 0 -9 -66 12 -83 12 -11 18 -25
15 -33 -3 -9 -6 -19 -6 -24 0 -4 -12 -11 -27 -14 -16 -4 -35 -9 -44 -12 -13
-4 -15 13 -16 131 l-1 135 47 0 48 0 -10 -50z m181 8 c-1 -36 -2 -38 -5 -11
-4 34 0 32 -118 46 -16 2 5 5 48 6 l77 1 -2 -42z m-41 -80 c-3 -8 -6 -5 -6 6
-1 11 2 17 5 13 3 -3 4 -12 1 -19z"/>
<path d="M5817 5528 c-242 -326 -530 -522 -915 -623 -48 -13 -77 -24 -64 -24
28 -1 62 -35 62 -61 0 -11 5 -20 11 -20 5 0 8 -4 4 -9 -12 -20 14 -19 91 3
322 95 561 245 797 503 71 76 177 221 177 241 0 5 -18 14 -40 21 -21 6 -46 18
-54 27 -14 13 -21 7 -69 -58z"/>
<path d="M7400 3610 c-13 -9 -13 -11 0 -20 8 -5 30 -10 49 -10 l34 0 -26 20
c-28 23 -36 24 -57 10z"/>
<path d="M2544 3233 c-10 -37 9 -47 91 -51 l74 -4 5 -52 c3 -28 7 -64 8 -81 3
-26 7 -30 37 -33 l34 -3 -7 113 c-4 62 -10 116 -14 120 -4 4 -56 9 -115 11
-106 4 -108 3 -113 -20z"/>
<path d="M1693 3243 c-14 -3 -25 -14 -29 -30 -7 -27 2 -189 12 -204 3 -5 20
-9 38 -9 l34 0 -2 93 -1 92 75 5 c72 5 75 6 75 30 0 25 -1 25 -90 26 -49 1
-100 0 -112 -3z"/>
<path d="M1928 3113 l-98 -4 -1 -407 c0 -224 -3 -437 -8 -474 l-7 -68 221 0
c122 0 303 3 403 7 l181 6 -6 106 c-3 58 -9 124 -15 146 -5 22 -8 47 -7 55 2
8 2 87 2 175 -1 101 2 162 9 166 6 4 11 62 12 146 l1 140 -119 7 c-115 6 -367
5 -568 -1z m592 -157 l0 -76 -202 -2 -201 -3 -1 -79 -1 -78 193 4 193 4 -3
-75 -3 -76 -187 3 -186 3 -4 -82 -3 -82 213 6 c197 5 213 4 206 -11 -4 -10 -9
-45 -12 -79 l-4 -63 -290 0 -290 0 8 33 c4 17 7 186 7 374 l1 342 25 4 c14 1
142 4 284 5 l257 3 0 -75z"/>
<path d="M2707 2244 c-4 -4 -7 -45 -7 -91 l0 -83 -52 0 c-91 0 -98 -5 -98 -62
0 -50 0 -50 28 -43 15 4 66 10 114 14 48 3 90 9 94 13 4 4 3 63 -2 130 l-9
123 -30 3 c-17 2 -34 0 -38 -4z"/>
<path d="M1673 2223 c-9 -3 -13 -35 -13 -108 0 -141 6 -148 126 -150 113 -2
134 5 134 44 0 35 -6 37 -107 47 l-73 7 0 83 0 84 -27 -1 c-16 0 -34 -3 -40
-6z"/>
<path d="M4380 2828 c-69 -36 -85 -65 -88 -166 -2 -76 0 -92 20 -126 35 -60
68 -79 144 -84 l65 -4 47 48 c77 80 93 172 44 265 -46 88 -137 115 -232 67z"/>
<path d="M6564 2589 c-75 -17 -103 -67 -68 -118 48 -68 189 -67 252 2 29 31
42 105 21 118 -18 11 -151 10 -205 -2z"/>
<path d="M7699 2838 c-34 -19 -79 -81 -79 -107 0 -8 51 -11 166 -11 l166 0 -6
28 c-23 97 -154 145 -247 90z"/>
<path d="M6288 1899 c-4 -25 0 -33 19 -42 33 -15 39 -2 17 38 -23 43 -30 44
-36 4z"/>
<path d="M3883 1906 c-12 -40 -9 -46 24 -46 20 0 23 4 19 20 -3 11 -9 29 -12
40 -8 30 -19 24 -31 -14z"/>
<path d="M5357 1963 c-4 -3 -7 -21 -7 -40 0 -30 3 -33 28 -33 34 0 52 16 52
46 0 26 -54 46 -73 27z"/>
<path d="M7504 1952 c-16 -10 -34 -48 -34 -70 0 -30 38 -72 66 -72 35 0 64 34
64 75 0 55 -56 94 -96 67z"/>
</g>
</svg>
