<svg version="1.0" xmlns="http://www.w3.org/2000/svg" width="1365.333" height="1365.333" viewBox="0 0 1024 1024"><path d="M0 512v512h1024V0H0zm682.4-339.8c-.7 27.8-1.9 43.7-3.4 45.2-1.9 1.8-12.6-10.5-14.4-16.5-2-6.7-3.4-8.9-5.5-8.9-2.6 0-4.8 2.9-6.1 8.2-1.5 5.8-12.4 18.4-29.6 34.2-6.5 6-12.3 11.7-12.9 12.6-.5.9-2 2.9-3.1 4.3l-2.2 2.7-7.1-6.7-7.2-6.7 5.4-5.5c2.9-3.1 8-8.8 11.2-12.6 3.3-3.9 12.2-13.6 19.8-21.6 13.4-14.2 18.7-20.5 18.7-22.1 0-.4-3.1-.8-6.8-.8-10.3 0-18-1.8-23-5.2-4.1-2.8-4.3-3.2-2.8-4.4 3.5-2.5 26.5-9.3 45.6-13.4 10.7-2.3 19.7-4.4 19.9-4.6s1.2-.4 2.2-.4c1.8 0 1.8 1.2 1.3 22.2m-70.6 14.3c.1.1-.5 1.7-1.4 3.6s-2.6 5.4-3.8 7.9c-2.5 5.5-13.5 16.3-23.5 23.2l-7.4 5.2-4.4-4.8-4.3-4.8 3.8-2.5c4.6-3.2 27.2-26 26.4-26.7-.3-.3-.1-.6.5-.6 1.7 0 2.5-5 1.1-6.7-.8-1.1 9.2 3.8 13 6.2m-140.1 6c45.5 6 89.4 30.6 117.7 66 19.6 24.6 30.9 47 38.1 75.4 3.9 15.5 4.8 25.5 4.2 47.5-.5 22.2-1.9 32-6.8 47.4-9.8 30.6-24.7 55-47.4 77.7-21.6 21.7-43.1 34.9-72 44.4-22.3 7.3-30.8 8.6-56.5 8.5-25.2 0-33.1-1.1-54.4-8-26-8.4-49.5-21.9-67-38.4-20-18.9-32.2-35.1-42.6-56.5-8-16.5-10.4-23.7-14.6-44.3-3.4-16.5-3.7-18.9-3.7-35.7-.1-30.1 5.4-54.4 18.7-82.1 16.1-33.4 38.9-58.7 71.1-78.4 20.6-12.6 48-21.7 73.5-24.3 9.5-1 31.2-.5 41.7.8M280.5 198c.3.5.8 4.7 1.1 9.2.5 6.4.2 9.2-1 12-1.8 4.3-1.3 4.2-12.6 1.9l-8.5-1.7-.7-4.9c-.3-2.8-.7-7.6-.7-10.7l-.1-5.7 6.8-.4c3.7-.2 8.6-.4 10.9-.5s4.5.2 4.8.8m386.6 34.9c-.6 1.1-11.3 12.1-23.8 24.5-20.9 20.7-22.9 22.3-23.5 20.1-.3-1.3-1.6-3.8-2.8-5.5-2-2.8-2-3.3-.7-5.3 2.4-3.5 11.1-13.4 22.6-25.3 5.8-6 12.6-13.2 15-15.8l4.5-4.8 4.8 5.1c4.1 4.2 4.7 5.4 3.9 7m-436.4 12.9c.6.4 1.3 2.1 1.5 3.7.3 2.7.7 3.1 4.3 3.5 3.8.5 4 .7 4 4 0 3.4-.1 3.5-4.2 3.8-4.2.3-4.2.3-4.5 4.5-.3 4.1-.4 4.2-3.8 4.2-3.3 0-3.6-.2-4.4-4.2-.9-4-1.1-4.2-5-4.5-3.8-.3-4.1-.5-4.1-3.3 0-2.7.4-3.1 4.3-3.9 3.4-.7 4.2-1.3 4.2-3.2 0-4 4.4-6.7 7.7-4.6m505.2 23.1c4 3.8 4.1 7.7.4 11.3-1.6 1.5-4.1 3-5.6 3.4-2.4.5-3.4.1-6.3-2.7-4.4-4.2-4.4-7.1 0-11.5 4.2-4.2 7.4-4.3 11.5-.5m-55.8 2c6.2 6.3 2 17.1-6.7 17.1-3 0-4.4-.7-7.6-4-4.9-5.2-5-8.2-.2-12.6 4.8-4.6 10.2-4.7 14.5-.5m100.3 15.2c1.4 1.7 2.6 3.6 2.6 4.3 0 1.7-3.7 6.4-6 7.6-4 2.1-10.9-3.5-9.5-7.9 2.3-7.3 8.5-9.2 12.9-4m-564.6 15.6-.3 12.8h-24l-.3-11.4c-.1-6.3 0-12.1.2-12.8.4-1 3.6-1.3 12.6-1.3h12.1zm513.6 15.8c.9 1.3 1.6 3.3 1.6 4.4s.7 2.4 1.6 2.9c2.1 1.2-21.1 2.1-62.5 2.4l-30.5.3-1.2-4.5c-.6-2.5-1.5-5.3-1.9-6.3-.7-1.6 1.9-1.7 45.3-1.7h46zm49.4 11.6c11.2 5.4 10.6 23.7-.8 28.3-6 2.4-10.1 2-14.7-1.3-9.8-7.1-9.1-22.5 1.2-27.2 5.3-2.4 8.9-2.4 14.3.2m-35.9 9.8c1.9 1.2 2.2 11.8.3 13-1.2.7-55.2 2.1-84.9 2.1H644v-3.3c0-1.7-.4-4.9-.9-7-.5-2-.8-3.8-.7-3.9.1-.2 59.5-1.3 82.1-1.6 9.4-.1 17.7.2 18.4.7m-552.7 5.7c1.6 3.4-.5 7.4-4.6 8.7-2.4.8-3.2.6-4.3-.9-1.6-2.1-1.7-5.8-.3-8.5.8-1.3 2.1-1.9 4.6-1.9 2.7 0 3.7.5 4.6 2.6m62.4-.9c1.6.6 1.9 7.9.5 10.2-.7 1.1-4.5 1.3-21 .9-12.8-.3-20.6-.9-21.3-1.6-.8-.8-.8-2.5-.2-5.4.7-3.2 1.5-4.4 3.4-5 2.6-.8 36.2 0 38.6.9M703 366.9c2.1.6 2.6 1.5 3.2 5.6.4 3 .3 5.4-.3 6s-12.1 1-29.9 1.1l-29 .1V367l20.8-.3c11.4-.1 23.4-.3 26.7-.4 3.3 0 7.1.2 8.5.6m-451 6.8v6.6l-23.2-.7c-24.9-.7-27.8-1.3-27.8-5.9 0-1.3.9-3.3 2-4.5 2-2.1 2.7-2.2 25.5-2.2H252zm491.9-3.5c3.9 2.4 6.1 7.1 6.1 12.8 0 8.1-5.9 14-13.9 14-3.6 0-4.8-.6-8.6-4.5-4.2-4.1-4.5-4.8-4.5-9.7q0-9.3 7.2-13.8c3.9-2.4 8.4-2 13.7 1.2m-583.2 1.7c6.2 2.9 8.9 9.3 7.1 17.5-1.7 8.3-11 13.6-17.6 10.2-3.7-1.9-8-6.9-8.8-10.2-1-3.8.2-10.4 2.3-13.3 2.2-2.9 7.8-6.1 10.8-6.1 1.1 0 3.9.9 6.2 1.9m645.2 15.6c.4 2.4 1.9 3.5 4.9 3.5 2.6 0 2.8 2.8.2 4-4.7 2.2-5.5 3-6 5.6-.6 3.3-1.9 3.7-3.1 1.1-.5-.9-1.3-2.5-1.8-3.5-.4-.9-2.2-1.8-4-2-4.5-.5-4.3-3.9.3-4.8 2.7-.4 3.7-1.3 4.5-3.6 1.2-3.4 4.3-3.6 5-.3m-556.1 4.4c.7.1 1.2 1.5 1.3 3.3 0 2.4.2 2.8.8 1.5.5-1.4.9-.9 1.7 2.2l1.1 4-6.2.6c-3.4.4-20 .5-36.8.3-34.9-.3-35-.4-32.2-7.1 1.8-4.3 2.7-4.6 15.5-5 8.4-.2 51.4 0 54.8.2m447.2 1c1.5 3 1.2 7.7-.7 9.2-1.3 1.1-6.8 1.4-25.9 1.4-13.3 0-24.4-.2-24.6-.5s-.2-2.9 0-5.7l.4-5.3 22.1-.3c12.2-.1 23.4-.3 24.9-.5 1.8-.1 3.1.4 3.8 1.7m78.1 19c3.4 3.3 3.9 4.5 3.9 8.3 0 5.6-3.1 10.6-8.2 13.1-7.3 3.6-17.1-1.7-18.4-9.9-1.3-8.8 4.6-15.4 13.9-15.4 4.4 0 5.4.4 8.8 3.9m-615.3 5.6c2.6 3.1 2.7 4.6.7 8.5-1.7 3.4-5 4.5-10 3.6-9.3-1.8-11.9-11.3-4-14.7 3.6-1.6 10.8-.2 13.3 2.6m97.3 0c0 .5.4 3.1.8 5.7.9 5.6-.2 6.4-1.9 1.3-.6-1.9-1.6-3.5-2.1-3.5-1.1 0-.2 3.9 1.2 5.4.5.6.9 1.2.9 1.5 0 .4-17.4.7-38.8.9-42 .3-42.8.2-44.6-5-1.2-3.4 1.2-6.5 5.3-7 7.2-.9 79.1-.3 79.2.7m482.6-.3c.7.6 1.3 3.2 1.3 5.8 0 3.7-.4 4.8-1.7 5.1-1 .2-23.5.3-50.1.1l-48.3-.3.7-4.7c.3-2.6 1.3-5.2 2-5.8 2-1.6 94.3-1.7 96.1-.2m-43.9 24c1.7 1.7 1.5 8.4-.4 10.2-1.3 1.4-5.5 1.6-30.8 1.6h-29.3l.5-2.6.5-2.7 1.2 2.3c1.1 2 1.3 2 1.9.5.3-.9.4-2.1 0-2.6-.3-.5 1.1-1.6 3-2.6 1.9-.9 3.3-2 3-2.5-.3-.4-.4-.9-.2-1s10.4-.4 22.8-.8c12.4-.3 23.4-.7 24.6-.8 1.1-.1 2.5.3 3.2 1m-436.4.4c.9.4 1.6 1.8 1.6 3.4s.4 4 1 5.4l1 2.6h-21.7c-20.9 0-21.8-.1-24-2.2-2.9-2.7-2.9-4.5-.1-7.5 2.1-2.2 2.6-2.3 21.4-2.3 10.6 0 19.9.3 20.8.6m378.3 4.1c-.3 1-.5.4-.5-1.2 0-1.7.2-2.4.5-1.8.2.7.2 2.1 0 3m-464.5 2c2.2 2 2.3 4.5.3 8.3-1.9 3.8-5 4.7-7.7 2.3-2.8-2.5-3.8-5.4-2.5-7.8 2.3-4.5 6.7-5.7 9.9-2.8m37.5 21.1c.6.4 1.5 2 1.8 3.5 1 3.9-1.7 7.7-5.5 7.7-3.2 0-5-2.2-5-6.4 0-3.9 5.4-6.9 8.7-4.8m42 4.7c2.4 2.5 4.3 5.1 4.3 5.9 0 .7-1.4 3.2-3 5.4-3.9 5.4-8.1 5.8-13.5 1.1-4.6-4.1-4.8-8.4-.4-13.4 4.3-4.9 7.1-4.7 12.6 1m421.1-1.1c1 2.7 2 3.6 5 4.3s3.8 1.4 4 3.5c.3 2.3-.2 3-3.1 4.2-2 .8-4.1 2.7-4.9 4.3-2.1 4.3-6 4.3-8.6-.1-1.6-2.6-2.8-3.5-5.3-3.8-6.7-.7-6.4-7 .4-7.6 3.1-.3 3.8-.8 4.3-3 1.5-6.3 6.2-7.3 8.2-1.8m-505.3 18.5.7 4.9 6.1.9c6 .8 6.2.9 6.2 3.8s-.2 3-5.9 3.7c-3.2.4-6.1.9-6.3 1.1-.2.3-.6 2.7-1 5.6-.5 4.5-.9 5.1-2.9 5.1-2.8 0-4.4-2.7-4.4-7.3 0-3.7-1.5-4.7-7.2-4.7-2.1 0-2.9-.6-3.4-2.6-.9-3.4.2-4.2 5.6-4.6l4.5-.3.3-5.3c.3-5.2.3-5.2 3.7-5.2 3.2 0 3.3.1 4 4.9m110.9 4.1c3.1 3.2 3.7 4.5 3.2 6.5-.6 2.4-33.3 35.8-42.4 43.3-4 3.3-4.3 3.4-6.1 1.8-1-.9-2.6-3.2-3.6-5l-1.9-3.4 3.9-4.9c3.6-4.6 41.5-42.2 42.5-42.3.3 0 2.2 1.8 4.4 4m469.6 8.4c0 6.3-.4 11.7-.8 12-.5.3-6.4.8-13 1.2l-12.2.7v-11.1c0-6.1-.3-11.7-.6-12.6-.5-1.4 1-1.6 13-1.6H749zm-131 0 5.4 5.6-7.9 8.2c-9.2 9.5-9.6 9.8-10.7 9.2-.4-.3-.8.3-.8 1.3 0 2.1-7.6 14.3-8.9 14.3-1.5 0-17.2-17.2-16.8-18.4.2-.6 1.2-1.1 2.3-1.1 1 0 2.6-.7 3.5-1.5 3.9-3.7 15.5-16.9 19.1-21.8l3.9-5.3 2.7 2c1.5 1.1 5.2 4.5 8.2 7.5m158.7-2.2c-.3.8-.6.5-.6-.6-.1-1.1.2-1.7.5-1.3.3.3.4 1.2.1 1.9m-120 9.5c.2.6-1.6 2.5-4.1 4.3-2.5 1.7-7.1 6.3-10.3 10.3-3.1 4-13 14.5-22 23.3-13.9 13.7-16.6 15.9-17.8 14.8-1.7-1.7-.3-7.3 2.8-11.9 5.9-8.6 25-31.5 28.8-34.6 8.2-6.7 10.9-8 16.8-7.7 3 .2 5.6.8 5.8 1.5m22.3 18.8c5.8 5.5 17.3 16.3 25.5 24 29.6 27.4 50.6 47.9 52.6 51.2 2.8 4.5 2.3 14.1-1.1 19.3-2 3.2-2.1 3.3-1.6.8.9-3.8 0-5.3-5.5-9.7-2.7-2.1-16.5-15.1-30.6-28.8-14.2-13.8-31.4-30.1-38.3-36.3-6.9-6.3-13.4-12.3-14.5-13.4-1.1-1.2-3.3-3.1-4.8-4.3l-2.8-2.2 3.2-5.6c1.9-3.4 2.9-6.3 2.6-7.6-.6-2.1-.5-2 2.1.2 1.5 1.3 7.4 6.9 13.2 12.4m-460.2 13.3c2.8 2.6 5.2 8.3 5.2 12.5 0 2.7-2.7 7.4-5.2 9.1-2.9 2-10 2-13.9.1-6.1-3.2-8.6-11.3-5.4-17.5 3.9-7.5 13.5-9.6 19.3-4.2m134 43.5c-.3 21.6-.3 21.9-2.7 23.8-3.4 2.8-8.5 2.5-11-.7-1.9-2.4-2-4-2.1-26.5 0-13.1.3-25.7.6-27.9l.6-3.9 7.5 6.7 7.4 6.6zM299 564.1c0 .8.5.7 1.6-.2 1.4-1.1 1.8-1 2.9.5 2.6 3.4-.7 6-4.5 3.6-1.6-1-2.3-5-.9-5 .5 0 .9.5.9 1.1m317 2.5c1.4.9 7.9 7 14.5 13.4 6.6 6.5 18.8 17.7 27 25 8.3 7.3 25.2 22.9 37.6 34.7 19.8 18.8 22.6 21.8 22.5 24.4-.1 3.5-.7 3.5-7.4.4-5.1-2.4-8.3-5.3-76.9-70.3-14.1-13.3-24.3-25.2-24.3-28.3 0-1.5 4.4-1 7 .7m-358.1.5c3.7 1.3 6.3 5.6 6.4 10.7.1 4.6-4.7 9.2-9.9 9.2-4.7 0-10.5-3.1-12.7-7-1.6-2.6-1.7-3.6-.7-6 1.3-3.1 4.7-5.8 8.9-7 3.7-1.2 4.4-1.1 8 .1m168.3 18.8c.7 1 2.2 2 3.3 2.2 2.9.6 3.3 6.6 3.4 55.6.1 41.5 0 42.3-2 43.3-1.1.6-3.7 1-5.7.8l-3.7-.3-.3-48.5c-.1-26.7 0-50 .3-51.8.7-3.6 2.7-4.2 4.7-1.3m53.2 3.7c.8 5.8.6 29.8-.3 37.9l-.6 6-5.2.3-5.3.3v-48l4.8-.4c2.6-.2 5-.4 5.3-.5.4-.1.9 1.9 1.3 4.4M305.7 588c7.3 4.4 8.1 13.4 1.7 19-2.5 2.1-4.5 3-7 3-7.6 0-12.4-5.1-12.4-13.2.1-9.1 9.5-13.8 17.7-8.8m150.5 19.4c.3 10.5.3 21.1-.1 23.6l-.6 4.5-5-.3c-2.7-.1-5.3-.8-5.7-1.5-.9-1.4-1.1-29.4-.2-39.9l.7-7.4 5.2.9 5.2 1zm91.8-12.7c0 3.2.3 6.8.6 8 .6 2.3.5 2.3-10 2.3H528v-4.8c0-3.4.3-4.3 1-3.2.5.8 1 2.4 1.1 3.5 0 1.1.3 1.4.6.7.2-.6.9-1.2 1.5-1.2 1.6 0 4.8-4.1 4.8-6.1 0-1-.8-2-1.7-2.3-1-.3.1-.3 2.5 0 2.4.2 4.9.1 5.5-.3.7-.5-2.6-1.1-7.3-1.4l-8.5-.5 10.3-.2 10.2-.2zm-151.7 2.7c7.3 3.1 11.3 11.2 9.3 19-1 4-6.4 9.5-10.6 10.7-6 1.8-10.5.4-16.1-5-4.3-4.2-4.9-5.2-4.9-8.9 0-7 3.9-14.4 8.5-16.3 3.2-1.2 10.3-1 13.8.5M586.5 616c.8 8.8.6 8.6 8.5 9.2 3.3.3 3.5.6 3.8 4 .3 4-.2 4.4-7.3 5-2.4.2-3.1.8-3.3 2.8-1.1 11.1-1.1 11-4.7 11h-3.3l-.7-6.4-.7-6.4-3.7-.6c-2-.3-4.8-.6-6.3-.6-2.4 0-2.8-.4-2.8-2.9 0-3.9 2.4-6.1 6.5-6.1 5.2 0 6.5-.9 6.5-4.5 0-1.8.3-5.3.6-7.9.6-4.2.9-4.6 3.4-4.6 2.8 0 2.8.1 3.5 8m-233.4 7.3c7.7 5.2 9.9 13.6 5.9 22.4-2.4 5.5-7 8.3-13.3 8.3-6.5 0-11.3-2.4-14.5-7.3-5.1-7.7-2.8-18.6 5.1-23.6 4.5-2.9 12.3-2.8 16.8.2m424 5.1c4.1 15.2-4.6 34.3-18.9 41.3-5.2 2.6-6.7 2.8-16.7 2.8-10.5 0-17.5-1.4-17.5-3.6 0-.4 5.1-3.8 11.3-7.5 6.1-3.7 12.4-7.8 13.9-9 4.8-3.9 13.7-14.6 17.5-20.9 7.1-11.9 6.4-11.1 8-9 .7 1.1 1.8 3.7 2.4 5.9M481 646.2c10.7 5.4 12 19.3 2.7 27.5-6.3 5.5-14 5.3-20.9-.5-8.2-6.9-7.4-19.8 1.5-26.3 5-3.6 10.4-3.8 16.7-.7M253.2 685c12.1.8 15.6 1.4 20.3 3.5 8.3 3.6 13 7.8 16.2 14.3l2.8 5.7-.1 53c-.2 45.2-.4 53.6-1.7 56.7-2.3 5.5-9.2 12.5-15.1 15.1l-5.1 2.3-48-.5-48-.6-6.3-3.4c-6.7-3.6-11.8-8.8-14.9-15-1.7-3.3-1.8-7.3-1.8-54.1v-50.5l2.4-5.3c3.2-7.1 12.9-16.1 20.1-18.6 8.7-3.1 50.2-4.5 79.2-2.6m477.5 13.2c-.5 1.9-1.1 62.7-.8 73.5.1 4.5 3.2 7.3 7.9 7.3 6.2 0 6.5.7 5.7 10l-.7 8.3-9.2-.5c-10.6-.6-14.5-2.2-18.1-7.6-5.2-7.9-5.6-12.5-5-50.7.3-19.3.8-36.4 1.1-38.2l.5-3.2 8.7-.4c4.8-.1 9.1-.4 9.6-.5.4-.1.6.8.3 2m-393.5.1c.1.1.4 15.3.7 33.8l.6 33.6 2.8 4.1c3.4 5.2 9.1 8.2 15.4 8.2 6.2 0 11-2.6 14.8-7.9l3-4.3.3-33.9.3-33.9h21l-.3 36.2-.3 36.3-2.5 4.9c-9.5 18.8-31.5 27-51.8 19.4-7.1-2.7-16.9-11.9-20.6-19.3-4-8.3-4.6-13.9-4.6-47.1v-30l10.5-.2c5.8 0 10.6 0 10.7.1M464.9 724c6.7 2.9 14.2 11.1 17.2 18.8 1.4 3.7 2.4 8.8 2.7 14.5.4 8.6.4 9-3.3 16.4-4.9 10-15.1 20.6-21.5 22.4-12.1 3.3-23.1-.3-29.2-9.6l-2-3 .5 15c.2 8.2.1 16-.4 17.2-.8 2.2-1.4 2.3-10.3 2.3h-9.5l.2-48 .2-48H428v5.5c0 5.2 1.4 7.3 2.6 4.1.8-2.2 7.9-6.7 13.7-8.8 6.4-2.3 13.4-1.9 20.6 1.2m77.3.6 9.7 2.7-2.2 2.7c-1.2 1.4-3.3 4.9-4.6 7.7l-2.4 5-5.6-2.5c-4.5-2.1-7.2-2.6-13.8-2.7-7.3 0-8.5.3-10.5 2.3-4.2 4.1.4 7.9 14.2 11.8 15.6 4.4 21.3 8 24.5 15.6 3.3 8 1.3 15-6.2 21.8-7.6 7.1-11.9 8.5-26.3 8.5-13.4 0-18.8-1.2-28.2-6.3l-4.8-2.5 3-3.4c1.7-1.8 3.7-4.9 4.4-6.8l1.5-3.5 4.8 2.4c6 3 13.6 4.6 21.4 4.6 6.6 0 9.3-1 10.9-4 2.3-4.2-1-6.7-13.6-10-14.9-4-21-7.8-24.5-15.5-3.7-7.9-2.1-16.2 4.5-23.3 7.5-8.3 24.6-10.1 43.8-4.6m72.8.4c4.1 1.7 7.9 3.5 8.3 3.9.9.9-5.5 14.5-7.2 15.5-.5.3-1.4-.1-2.1-.9-2-2.4-11.7-4.8-17.6-4.3-18.6 1.6-23.8 25.5-8.1 37.2 4.5 3.3 15.6 3 22.6-.7 3-1.5 5.5-2.6 5.6-2.5.1.2.8 1.9 1.5 3.8.8 1.9 3 5.2 4.9 7.3 1.8 2.1 3.2 3.9 3 4.1-1.7 1.7-16.7 7.7-21.7 8.6-11.5 2.3-26.7-2.4-34.3-10.7-8.2-8.9-13.1-24.8-10.8-34.7 2.9-12.4 8.7-19.9 19.2-25.1 13.1-6.4 23.8-6.9 36.7-1.5m64.7-1c6.1 2.6 11.6 8.3 14.6 14.9 1.7 3.9 2.2 8.3 3.3 29.1.7 13.5 1.3 25.3 1.3 26.2.1 1.6-1 1.8-9.4 1.8H680v-10.2l-4.5 3.6c-7.6 6.3-12.5 7.9-22.4 7.4-15.3-.7-22.2-7-22.9-20.9-.6-11.2 3-17.4 12.8-21.8 3.9-1.8 6.6-2.1 19.8-2.1 9.2 0 15.2-.4 15.2-1 0-3.2-3.6-9.2-6.4-10.7-6.8-3.5-25-2.5-32.4 1.8-3.1 1.8-3.3 1.8-3.9.1-.3-.9-1.7-4.5-3-8-1.4-3.5-2.3-6.4-2.1-6.6.3-.2 18.7-5.2 22.3-6 1.1-.3 6.5-.4 12-.2 7.7.2 11.2.8 15.2 2.6m113.9 1c7.8 3.5 13.2 8.4 16.9 15.2 2.6 4.7 3 6.5 3.3 15.5l.4 10.3h-25.6c-20 0-25.6.3-25.6 1.3 0 2.6 5.2 8.8 9 10.7 2.2 1.1 6 2.3 8.4 2.6 6.4.9 17.1-1.3 20.7-4.3 2.7-2.3 2.9-2.3 2.9-.6 0 1.1 1.8 4.5 4 7.6l3.9 5.7-5.7 2.9c-11.6 5.9-21.2 7.3-32.4 5-12.1-2.6-21-9.7-26.8-21.5-4.6-9.3-5.3-20.8-2-30.8 6.4-19.4 29.1-28.5 48.6-19.6M501 831c0 8.2.2 9.1 2.3 10.4 5.3 3.5 8.7-1 8.7-11.5 0-5.9 1.6-8.9 4.6-8.9 1.3 0 1.4 1.6.9 10.2-.7 11.5-1.8 14.2-7 16.4-4.8 2-6.9 1.8-10.4-1.2-3.9-3.2-4.8-7-4.3-16.6.3-6.1.8-7.8 2.1-8.1 2.8-.6 3.1.2 3.1 9.3m135-2.2c1.2 3.2 3.2 7.5 4.4 9.7 1.3 2.2 2.7 5 3 6.2.7 2.1.4 2.3-3.3 2.3-3.4 0-4.1-.3-4.1-2s-.7-2-5-2c-4.5 0-5.2.3-6 2.5-.7 1.8-1.7 2.5-3.5 2.5-1.4 0-2.5-.5-2.5-1.1 0-.5 1.5-4.7 3.4-9.2 1.8-4.5 3.9-9.9 4.5-11.9 1.2-3.7 3.6-5.2 5.8-3.5.7.5 2.2 3.4 3.3 6.5M347.4 825c1.4 1.7 3.3 4.4 4.3 6l1.7 2.9 3.3-4.9c3.4-5.1 6.9-7.8 8.3-6.3.4.4.9 6.2 1.1 12.8l.4 12-2.7.3-2.8.3v-15.4l-4 4.4-4 4.4-1.8-2.4c-5.1-7.3-5.1-7.3-5.2 1.1 0 7.6-.1 7.8-2.5 7.8H341v-13c0-12.1.1-13 1.9-13 1.1 0 3.1 1.4 4.5 3m45.6.2c2.3 3.8 7.5 16.1 8.5 20 .6 2.5.4 2.8-1.7 2.8-1.7 0-2.7-.8-3.5-3-1-2.6-1.6-3-5.1-3-5.6 0-7.2.8-7.2 3.6 0 2-.5 2.4-3 2.4-3.8 0-3.8-1.4-.2-8.8 1.6-3.1 3.9-8.3 5.1-11.5 1.3-3.1 3-5.7 3.7-5.7.8 0 2.3 1.5 3.4 3.2m37.8-1.6c2.3 1.6 2.9 4.8 1.1 6-.6.3-1.6.1-2.2-.5-1.9-1.9-8.2-1.3-10.2.9-2.9 3.2-2.5 8.8.9 11.6 1.5 1.3 3.4 2.4 4.2 2.4 2.7 0 5.4-2 5.4-4.1 0-1.6-.5-1.8-2.5-1.3-1.8.4-2.5.2-2.5-.7.1-3.1 1.6-3.9 6.3-3.3l4.7.7v4.8c0 4.1-.4 5.1-2.6 6.5-1.4 1-4.7 1.9-7.5 2.2-4.7.4-5.1.3-9.4-4-5.2-5.3-5.8-9-2.4-14.8 4.4-7.5 11.4-10.2 16.7-6.4m35.4 1.4c-.4 2.9-.5 3-6.3 3-5.6 0-5.9.1-5.9 2.4s.4 2.5 5.3 2.8c4.5.3 5.2.6 5.5 2.5.3 2.1 0 2.3-4.7 2.3s-5.1.2-5.1 2.5.4 2.4 6.3 2.7c5.6.3 6.2.5 6.5 2.5.3 2.2 0 2.3-6.1 2.3-3.5 0-7.9.3-9.6.6l-3.1.6v-26.1l6.8-.4c3.7-.2 7.6-.4 8.8-.5 1.7-.2 2 .2 1.6 2.8m80.3.1c7.1 6.2 2.4 14.9-8 14.9-3.7 0-3.7 0-3.3 4 .1 2.2 0 4-.4 4-3.3.1-3.6-.3-4.2-5.4-.3-3-.3-8.8.1-13l.6-7.6h5.8c5.1 0 6.3.4 9.4 3.1m28.5-1.6c4.9 2.5 3.8 4.2-2.3 3.7-4-.3-5.6 0-6.6 1.1-1.8 2.3-.8 3.3 4.6 4.7 6.3 1.5 7.3 2.5 7.3 7 0 3.3-.5 4.1-3.4 5.9-4 2.5-10.2 2.7-12.8.4-2.9-2.6-2.1-3.3 4.1-3.3 3.3 0 6.2-.4 6.6-.9.3-.5-2.3-2.9-5.7-5.3-7.3-5-8-7.2-4.3-11.7 3.1-3.6 7.6-4.1 12.5-1.6m31.9-.4c3.6 1.3 4 3.3 1 4.9-1.4.8-2.9.8-4.8.2-8.4-2.9-12.2 8.4-4.6 13.4 2.2 1.4 3 1.5 5 .4 3.1-1.6 7.8-.5 7.3 1.8-.4 2.2-8.9 5.6-12.1 4.8-3.5-.8-9.7-9.5-9.7-13.5 0-9.4 8.6-15.2 17.9-12m51.3 8.3-.4 9.4 4.4.7c2.3.3 7 .7 10.3.8 5.3.2 6 .5 6.3 2.3.3 1.9-.3 2.2-5 2.7-8.2 1-18.6.8-19.3-.3-.4-.6-.3-6.5 0-13 .6-10.1 1-12 2.4-12s1.6 1.3 1.3 9.4m52.8-8.7c0 .5.3 1.9.7 3.1.5 1.9.2 2.3-1.3 2.2-1-.1-3.1-.2-4.6-.1l-2.6.1.5 10 .6 10h-6.6l.6-9.9.6-9.9-4.7.1c-3.7.2-4.7-.1-5-1.6-.8-3.8 1.5-4.7 11.9-4.7 5.5 0 9.9.3 9.9.7m48.6 1.2c4.9 3 7.7 8.4 7.1 13.7-.6 5.4-2 7.2-7.6 9.7-5.4 2.4-9.8 1.7-13.4-2.1-3.7-3.9-4.9-7.5-3.8-12.3 2.1-9.1 10.5-13.4 17.7-9m26.7.5c1.2 1.3 3.9 4.9 6 8s4.2 5.6 4.7 5.6c.6 0 1-2.9 1-6.4 0-7.7.6-9.6 3-9.6 2.6 0 3 1.9 3 14.6V848h-2.9c-2.4 0-4.2-1.4-9.1-6.8l-6.1-6.7.3 6.5c.3 6.4.2 6.5-2.2 6.5-2.2 0-2.6-.5-3.1-4.5-.3-2.5-.4-8.2-.1-12.8.5-9 1.5-10.1 5.5-5.8M327 833.2c0 5.7.3 11.3.6 12.5.6 2.1.3 2.3-3 2.3H321v-11.8c0-6.5.3-12.2.7-12.5.3-.4 1.7-.7 3-.7 2.3 0 2.3.2 2.3 10.2m400.5-7c.3 1.8.5 7.3.3 12.3-.3 9-.3 9-3 9.3l-2.8.3v-11.9c0-6.5.3-12.2.7-12.5 1.8-1.9 4.2-.5 4.8 2.5M676 838c0 .5-.5 1-1.1 1-.5 0-.7-.5-.4-1 .3-.6.8-1 1.1-1 .2 0 .4.4.4 1"/><path d="M434 219.1c-3 .4-8.9 1.3-13 2-10.4 1.6-14.1 2.5-25 6.6-24.7 9.1-50.2 27.7-66.4 48.4-23.2 29.7-34.7 62.5-34.6 98.7.1 15.6 1.3 24.2 5.6 39.2 6 21.1 12.8 35.1 26.2 54 7.2 10.1 23.5 25.7 34.7 33.2 27 18.1 55.1 26.8 86 26.8 28.6-.1 53.1-6.5 79.7-21 22-12.1 46.5-38.6 59.3-64 10.1-20.2 17.5-49.4 17.6-69.5 0-12.8-.9-19-5.2-35.3-12.1-46.2-43.2-84.8-84.8-105.7-6.6-3.3-22.6-9.1-28.9-10.6-14.4-3.3-39.3-4.6-51.2-2.8m-6 26.4c4 2 6 5.3 6 9.5 0 5.3-3.7 8.2-17 13.6-14.5 5.7-21 9.4-33.5 18.7-11 8.2-20.2 17.5-26.3 26.5-4.7 6.8-11.1 12.9-14.7 13.8-3.1.8-8.1-1.2-10-4-1.8-2.5-1.8-6.9-.1-11.8 2.2-6.2 12.5-20.7 20.1-28.3 18.5-18.5 37.3-29.7 61.5-36.9 10.2-3 10.3-3 14-1.1m48.2 45.2c-.2 7.1-.5 13.4-.7 14.1-.4 1-3.7 1.2-14.2 1l-13.8-.3-.3-13.8-.3-13.7h29.6zm-40.5-5c-.4 3.8-.7 9.3-.7 12.3v5.5h-25.4l-.1-12.3-.1-12.2h26.9zm79.3 6.8V306h-29v-27h29zm14.1 10.1c.9 1.1.8 1.4-1 1.4s-2.1-.6-2-4.3c.1-3.9.1-4 .9-1.4.5 1.6 1.4 3.5 2.1 4.3M389.8 314h9.2v29h-29v-30.3l5.3.7c2.8.3 9.4.6 14.5.6m48.2 14.3c0 7.9-.2 14.6-.4 14.8s-6.8.3-14.5.1l-14.1-.3V314h29zm38 .7v14l-11 .2c-6 .1-12.5.2-14.2.2l-3.3.1.2-13c.1-7.2.3-13.6.3-14.3 0-.9 3.5-1.2 14-1.2h14zm39 0c0 10.5-.3 14-1.2 14.1-.7.1-7.3.3-14.5.4l-13.3.4V330c0-10.1.3-14 1.3-14.3.6-.3 7.2-.6 14.5-.6l13.2-.1zm37-5.3c0 4.9.3 11.2.6 14l.7 5.3H525v-28h27zm-191.8 28c.2.5.2 7 0 14.5l-.4 13.8H332v-29h13.9c7.7 0 14.1.3 14.3.7m38.7.8c.2.2.4 6.6.5 14.2l.1 13.8-14.5-.2-14.5-.1-.3-13.3c-.1-7.3 0-13.9.3-14.7.5-1.3 2.8-1.4 14.3-.8 7.5.4 13.8.9 14.1 1.1m38.9 13.7-.3 14.3-14.2.3-14.3.3V352h29.1zm38.2-.3c0 11.7-.2 14-1.6 14.5-.9.3-6.7.6-12.9.6s-12-.3-12.9-.6c-1.3-.5-1.6-2.6-1.6-12.3 0-17.5-1.3-16.1 15.1-16.1H476zm38.7.3.1 13.8h-14.3c-7.9 0-14.6-.3-14.8-.8-.2-.4-.2-6.4.1-13.4l.4-12.7 3.2-.4c1.7-.2 8-.4 14.1-.3l11 .1zm37.3-.2v14h-28v-26.9l11.3-.4c6.1-.1 12.4-.4 14-.5l2.7-.2zm-192 37v14h-27v-5.8c0-3.1-.3-9.4-.7-14l-.6-8.2H360zm39.7-.3-.2 13.8-14.2.3-14.3.3v-8.8c0-4.9-.3-11.2-.6-14.1l-.7-5.2h30.1zm37.9 0-.2 13.8-14.2.3-14.2.3V389h28.7zm38.4-1.3c0 6.8-.3 13.1-.6 14-.5 1.4-2.7 1.6-13.9 1.6h-13.2l-.5-13.3c-.3-7.2-.3-13.5-.1-14 .2-.4 6.7-.7 14.4-.7H476zm38.2 1c-.4 15.8 1.2 14.4-16.4 14.5l-11.8.1v-28h28.5zm36.6.6-.3 13.5-12.7.1-12.8.2v-27.5l13 .1 13 .1zm-151.1 35.7-.2 13.8h-28l-.3-12.4c-.1-6.9 0-13.1.2-13.8.4-1 3.9-1.3 14.5-1.3h14zm37.8-12.3s-.1 5.8-.3 12.8l-.3 12.8h-8.2c-4.5 0-10.6.3-13.4.6l-5.3.7v-13.6c0-12.1.2-13.6 1.8-14 1.4-.4 25.7.3 25.7.7m38 12.6v13H448v-26h27.5zm38.5 0v13h-28v-26h28zm-95.3 28c-.5 2.7-1.4 5-1.8 5-1.9 0-.9 6.6 1.2 8.3 1.2 1.1 1.8 2.5 1.5 3.3-.3.9-.6 1.9-.6 2.4 0 .4-1.2 1.1-2.7 1.4-1.6.4-3.5.9-4.4 1.2-1.3.4-1.5-1.3-1.6-13.1l-.1-13.5h9.5zm18.1-.8c-.1 3.6-.2 3.8-.5 1.1-.4-3.4 0-3.2-11.8-4.6-1.6-.2.5-.5 4.8-.6l7.7-.1zm-4.1 8c-.3.8-.6.5-.6-.6-.1-1.1.2-1.7.5-1.3.3.3.4 1.2.1 1.9"/><path d="M581.7 471.2c-24.2 32.6-53 52.2-91.5 62.3-4.8 1.3-7.7 2.4-6.4 2.4 2.8.1 6.2 3.5 6.2 6.1 0 1.1.5 2 1.1 2 .5 0 .8.4.4.9-1.2 2 1.4 1.9 9.1-.3 32.2-9.5 56.1-24.5 79.7-50.3 7.1-7.6 17.7-22.1 17.7-24.1 0-.5-1.8-1.4-4-2.1-2.1-.6-4.6-1.8-5.4-2.7-1.4-1.3-2.1-.7-6.9 5.8M740 663c-1.3.9-1.3 1.1 0 2 .8.5 3 1 4.9 1h3.4l-2.6-2c-2.8-2.3-3.6-2.4-5.7-1m-485.6 37.7c-1 3.7.9 4.7 9.1 5.1l7.4.4.5 5.2c.3 2.8.7 6.4.8 8.1.3 2.6.7 3 3.7 3.3l3.4.3-.7-11.3c-.4-6.2-1-11.6-1.4-12s-5.6-.9-11.5-1.1c-10.6-.4-10.8-.3-11.3 2m-85.1-1c-1.4.3-2.5 1.4-2.9 3-.7 2.7.2 18.9 1.2 20.4.3.5 2 .9 3.8.9h3.4l-.2-9.3-.1-9.2 7.5-.5c7.2-.5 7.5-.6 7.5-3 0-2.5-.1-2.5-9-2.6-4.9-.1-10 0-11.2.3m23.5 13-9.8.4-.1 40.7c0 22.4-.3 43.7-.8 47.4l-.7 6.8h22.1c12.2 0 30.3-.3 40.3-.7l18.1-.6-.6-10.6c-.3-5.8-.9-12.4-1.5-14.6-.5-2.2-.8-4.7-.7-5.5.2-.8.2-8.7.2-17.5-.1-10.1.2-16.2.9-16.6.6-.4 1.1-6.2 1.2-14.6l.1-14-11.9-.7c-11.5-.6-36.7-.5-56.8.1m59.2 15.7v7.6l-20.2.2-20.1.3-.1 7.9-.1 7.8 19.3-.4 19.3-.4-.3 7.5-.3 7.6-18.7-.3-18.6-.3-.4 8.2-.3 8.2 21.3-.6c19.7-.5 21.3-.4 20.6 1.1-.4 1-.9 4.5-1.2 7.9l-.4 6.3h-58l.8-3.3c.4-1.7.7-18.6.7-37.4l.1-34.2 2.5-.4c1.4-.1 14.2-.4 28.4-.5l25.7-.3zm18.7 71.2c-.4.4-.7 4.5-.7 9.1v8.3h-5.2c-9.1 0-9.8.5-9.8 6.2 0 5 0 5 2.8 4.3 1.5-.4 6.6-1 11.4-1.4 4.8-.3 9-.9 9.4-1.3s.3-6.3-.2-13l-.9-12.3-3-.3c-1.7-.2-3.4 0-3.8.4m-103.4 2.1c-.9.3-1.3 3.5-1.3 10.8 0 14.1.6 14.8 12.6 15 11.3.2 13.4-.5 13.4-4.4 0-3.5-.6-3.7-10.7-4.7l-7.3-.7V801l-2.7.1c-1.6 0-3.4.3-4 .6M438 741.2c-6.9 3.6-8.5 6.5-8.8 16.6-.2 7.6 0 9.2 2 12.6 3.5 6 6.8 7.9 14.4 8.4l6.5.4 4.7-4.8c7.7-8 9.3-17.2 4.4-26.5-4.6-8.8-13.7-11.5-23.2-6.7m218.4 23.9c-7.5 1.7-10.3 6.7-6.8 11.8 4.8 6.8 18.9 6.7 25.2-.2 2.9-3.1 4.2-10.5 2.1-11.8-1.8-1.1-15.1-1-20.5.2m113.5-24.9c-3.4 1.9-7.9 8.1-7.9 10.7 0 .8 5.1 1.1 16.6 1.1h16.6l-.6-2.8c-2.3-9.7-15.4-14.5-24.7-9m-141.1 93.9c-.4 2.5 0 3.3 1.9 4.2 3.3 1.5 3.9.2 1.7-3.8-2.3-4.3-3-4.4-3.6-.4m-240.5-.7c-1.2 4-.9 4.6 2.4 4.6 2 0 2.3-.4 1.9-2-.3-1.1-.9-2.9-1.2-4-.8-3-1.9-2.4-3.1 1.4m147.4-5.7c-.4.3-.7 2.1-.7 4 0 3 .3 3.3 2.8 3.3 3.4 0 5.2-1.6 5.2-4.6 0-2.6-5.4-4.6-7.3-2.7m214.7 1.1c-1.6 1-3.4 4.8-3.4 7 0 3 3.8 7.2 6.6 7.2 3.5 0 6.4-3.4 6.4-7.5 0-5.5-5.6-9.4-9.6-6.7"/></svg>